<?xml version="1.0" standalone="no"?>
<!DOCTYPE svg PUBLIC "-//W3C//DTD SVG 20010904//EN"
 "http://www.w3.org/TR/2001/REC-SVG-20010904/DTD/svg10.dtd">
<svg version="1.0" xmlns="http://www.w3.org/2000/svg"
 width="1920.000000pt" height="1920.000000pt" viewBox="0 0 1920.000000 1920.000000"
 preserveAspectRatio="xMidYMid meet">

<g transform="translate(0.000000,1920.000000) scale(0.100000,-0.100000)"
fill="#000000" stroke="none">
<path d="M9525 19194 c-146 -21 -280 -93 -379 -206 -40 -45 -754 -1466 -4581
-9118 -3278 -6556 -4536 -9082 -4546 -9125 -17 -77 -17 -214 0 -285 40 -158
146 -300 284 -379 176 -100 417 -101 587 -3 25 14 1995 1326 4377 2914 l4333
2888 4362 -2908 c3210 -2140 4379 -2914 4423 -2929 97 -34 173 -46 256 -39
259 22 457 184 536 441 20 64 22 221 4 300 -10 43 -1283 2598 -4546 9125
-4229 8457 -4537 9069 -4589 9126 -84 93 -188 156 -306 185 -43 11 -174 19
-215 13z m3803 -9389 c2047 -4095 3720 -7445 3717 -7445 -3 0 -1604 1066
-3558 2368 -1953 1302 -3572 2380 -3597 2394 -62 36 -171 68 -255 74 -89 7
-195 -14 -290 -59 -38 -19 -1671 -1101 -3627 -2405 -1957 -1305 -3560 -2372
-3563 -2372 -3 0 1670 3350 3717 7445 2048 4095 3725 7445 3728 7445 3 0 1680
-3350 3728 -7445z"/>
</g>
</svg>
